<?xml version="1.0" encoding="UTF-8" standalone="no"?>
<!DOCTYPE svg PUBLIC "-//W3C//DTD SVG 1.1//EN"
 "http://www.w3.org/Graphics/SVG/1.1/DTD/svg11.dtd">
<!-- Generated by graphviz version 2.47.0 (20210316.0004)
 -->
<!-- Title: dependencies Pages: 1 -->
<svg width="1374pt" height="211pt"
 viewBox="0.00 0.00 1374.00 211.00" xmlns="http://www.w3.org/2000/svg" xmlns:xlink="http://www.w3.org/1999/xlink">
<g id="graph0" class="graph" transform="scale(1 1) rotate(0) translate(4 207)">
<title>dependencies</title>
<polygon fill="white" stroke="transparent" points="-4,4 -4,-207 1370,-207 1370,4 -4,4"/>
<text text-anchor="start" x="662.01" y="-42.4" font-family="Times-12" font-weight="bold" font-size="14.00">Legend</text>
<polygon fill="#ffffb3" stroke="transparent" points="449,-10 449,-30 469,-30 469,-10 449,-10"/>
<text text-anchor="start" x="472.63" y="-15.4" font-family="Times-12" font-size="14.00"> &#160;Declarations</text>
<polygon fill="#8dd3c7" stroke="transparent" points="562,-10 562,-30 582,-30 582,-10 562,-10"/>
<text text-anchor="start" x="585.73" y="-15.4" font-family="Times-12" font-size="14.00"> &#160;Module</text>
<polygon fill="#80b1d3" stroke="transparent" points="648,-10 648,-30 668,-30 668,-10 648,-10"/>
<text text-anchor="start" x="671.78" y="-15.4" font-family="Times-12" font-size="14.00"> &#160;Bootstrap</text>
<polygon fill="#fdb462" stroke="transparent" points="745,-10 745,-30 765,-30 765,-10 745,-10"/>
<text text-anchor="start" x="768.67" y="-15.4" font-family="Times-12" font-size="14.00"> &#160;Providers</text>
<polygon fill="#fb8072" stroke="transparent" points="841,-10 841,-30 861,-30 861,-10 841,-10"/>
<text text-anchor="start" x="864.73" y="-15.4" font-family="Times-12" font-size="14.00"> &#160;Exports</text>
<g id="clust1" class="cluster">
<title>cluster_AuthModule</title>
<polygon fill="none" stroke="black" stroke-dasharray="1,5" points="8,-70 8,-195 1358,-195 1358,-70 8,-70"/>
</g>
<g id="clust3" class="cluster">
<title>cluster_AuthModule_imports</title>
<polygon fill="none" stroke="black" points="1138,-78 1138,-130 1350,-130 1350,-78 1138,-78"/>
</g>
<g id="clust6" class="cluster">
<title>cluster_AuthModule_providers</title>
<polygon fill="none" stroke="black" points="16,-78 16,-130 1130,-130 1130,-78 16,-78"/>
</g>
<!-- EmailModule -->
<g id="node1" class="node">
<title>EmailModule</title>
<polygon fill="#8dd3c7" stroke="black" points="1342.49,-122 1339.49,-126 1318.49,-126 1315.49,-122 1249.51,-122 1249.51,-86 1342.49,-86 1342.49,-122"/>
<text text-anchor="middle" x="1296" y="-99.8" font-family="Times,serif" font-size="14.00">EmailModule</text>
</g>
<!-- AuthModule -->
<g id="node3" class="node">
<title>AuthModule</title>
<polygon fill="#8dd3c7" stroke="black" points="813.55,-187 810.55,-191 789.55,-191 786.55,-187 726.45,-187 726.45,-151 813.55,-151 813.55,-187"/>
<text text-anchor="middle" x="770" y="-164.8" font-family="Times,serif" font-size="14.00">AuthModule</text>
</g>
<!-- EmailModule&#45;&gt;AuthModule -->
<g id="edge1" class="edge">
<title>EmailModule&#45;&gt;AuthModule</title>
<path fill="none" stroke="black" d="M1296,-122.29C1296,-144.21 1296,-178 1296,-178 1296,-178 823.94,-178 823.94,-178"/>
<polygon fill="black" stroke="black" points="823.94,-174.5 813.94,-178 823.94,-181.5 823.94,-174.5"/>
</g>
<!-- UserModule -->
<g id="node2" class="node">
<title>UserModule</title>
<polygon fill="#8dd3c7" stroke="black" points="1231.98,-122 1228.98,-126 1207.98,-126 1204.98,-122 1146.02,-122 1146.02,-86 1231.98,-86 1231.98,-122"/>
<text text-anchor="middle" x="1189" y="-99.8" font-family="Times,serif" font-size="14.00">UserModule</text>
</g>
<!-- UserModule&#45;&gt;AuthModule -->
<g id="edge2" class="edge">
<title>UserModule&#45;&gt;AuthModule</title>
<path fill="none" stroke="black" d="M1189,-122.11C1189,-141.34 1189,-169 1189,-169 1189,-169 823.65,-169 823.65,-169"/>
<polygon fill="black" stroke="black" points="823.65,-165.5 813.65,-169 823.65,-172.5 823.65,-165.5"/>
</g>
<!-- AccessTokenStrategy -->
<g id="node4" class="node">
<title>AccessTokenStrategy</title>
<ellipse fill="#fdb462" stroke="black" cx="1027" cy="-104" rx="95.46" ry="18"/>
<text text-anchor="middle" x="1027" y="-99.8" font-family="Times,serif" font-size="14.00">AccessTokenStrategy</text>
</g>
<!-- AccessTokenStrategy&#45;&gt;AuthModule -->
<g id="edge3" class="edge">
<title>AccessTokenStrategy&#45;&gt;AuthModule</title>
<path fill="none" stroke="black" d="M1027,-122.03C1027,-138.4 1027,-160 1027,-160 1027,-160 823.6,-160 823.6,-160"/>
<polygon fill="black" stroke="black" points="823.6,-156.5 813.6,-160 823.6,-163.5 823.6,-156.5"/>
</g>
<!-- AuthService -->
<g id="node5" class="node">
<title>AuthService</title>
<ellipse fill="#fdb462" stroke="black" cx="854" cy="-104" rx="59.11" ry="18"/>
<text text-anchor="middle" x="854" y="-99.8" font-family="Times,serif" font-size="14.00">AuthService</text>
</g>
<!-- AuthService&#45;&gt;AuthModule -->
<g id="edge4" class="edge">
<title>AuthService&#45;&gt;AuthModule</title>
<path fill="none" stroke="black" d="M804.23,-113.87C804.23,-113.87 804.23,-140.91 804.23,-140.91"/>
<polygon fill="black" stroke="black" points="800.73,-140.91 804.23,-150.91 807.73,-140.91 800.73,-140.91"/>
</g>
<!-- GoogleAuthStrategy -->
<g id="node6" class="node">
<title>GoogleAuthStrategy</title>
<ellipse fill="#fdb462" stroke="black" cx="686" cy="-104" rx="90.91" ry="18"/>
<text text-anchor="middle" x="686" y="-99.8" font-family="Times,serif" font-size="14.00">GoogleAuthStrategy</text>
</g>
<!-- GoogleAuthStrategy&#45;&gt;AuthModule -->
<g id="edge5" class="edge">
<title>GoogleAuthStrategy&#45;&gt;AuthModule</title>
<path fill="none" stroke="black" d="M751.59,-116.53C751.59,-116.53 751.59,-140.85 751.59,-140.85"/>
<polygon fill="black" stroke="black" points="748.09,-140.85 751.59,-150.85 755.09,-140.85 748.09,-140.85"/>
</g>
<!-- KakaoAuthStrategy -->
<g id="node7" class="node">
<title>KakaoAuthStrategy</title>
<ellipse fill="#fdb462" stroke="black" cx="489" cy="-104" rx="87.96" ry="18"/>
<text text-anchor="middle" x="489" y="-99.8" font-family="Times,serif" font-size="14.00">KakaoAuthStrategy</text>
</g>
<!-- KakaoAuthStrategy&#45;&gt;AuthModule -->
<g id="edge6" class="edge">
<title>KakaoAuthStrategy&#45;&gt;AuthModule</title>
<path fill="none" stroke="black" d="M489,-122.03C489,-138.4 489,-160 489,-160 489,-160 716.4,-160 716.4,-160"/>
<polygon fill="black" stroke="black" points="716.4,-163.5 726.4,-160 716.4,-156.5 716.4,-163.5"/>
</g>
<!-- LocalAuthStrategy -->
<g id="node8" class="node">
<title>LocalAuthStrategy</title>
<ellipse fill="#fdb462" stroke="black" cx="299" cy="-104" rx="84.53" ry="18"/>
<text text-anchor="middle" x="299" y="-99.8" font-family="Times,serif" font-size="14.00">LocalAuthStrategy</text>
</g>
<!-- LocalAuthStrategy&#45;&gt;AuthModule -->
<g id="edge7" class="edge">
<title>LocalAuthStrategy&#45;&gt;AuthModule</title>
<path fill="none" stroke="black" d="M299,-122.11C299,-141.34 299,-169 299,-169 299,-169 716.11,-169 716.11,-169"/>
<polygon fill="black" stroke="black" points="716.11,-172.5 726.11,-169 716.11,-165.5 716.11,-172.5"/>
</g>
<!-- NaverAuthStrategy -->
<g id="node9" class="node">
<title>NaverAuthStrategy</title>
<ellipse fill="#fdb462" stroke="black" cx="110" cy="-104" rx="86.23" ry="18"/>
<text text-anchor="middle" x="110" y="-99.8" font-family="Times,serif" font-size="14.00">NaverAuthStrategy</text>
</g>
<!-- NaverAuthStrategy&#45;&gt;AuthModule -->
<g id="edge8" class="edge">
<title>NaverAuthStrategy&#45;&gt;AuthModule</title>
<path fill="none" stroke="black" d="M110,-122.29C110,-144.21 110,-178 110,-178 110,-178 716.44,-178 716.44,-178"/>
<polygon fill="black" stroke="black" points="716.44,-181.5 726.44,-178 716.44,-174.5 716.44,-181.5"/>
</g>
</g>
</svg>
