<?xml version="1.0" encoding="UTF-8" standalone="no"?>
<!DOCTYPE svg PUBLIC "-//W3C//DTD SVG 1.1//EN"
 "http://www.w3.org/Graphics/SVG/1.1/DTD/svg11.dtd">
<!-- Generated by graphviz version 2.47.0 (20210316.0004)
 -->
<!-- Title: dependencies Pages: 1 -->
<svg width="504pt" height="211pt"
 viewBox="0.00 0.00 504.00 211.00" xmlns="http://www.w3.org/2000/svg" xmlns:xlink="http://www.w3.org/1999/xlink">
<g id="graph0" class="graph" transform="scale(1 1) rotate(0) translate(4 207)">
<title>dependencies</title>
<polygon fill="white" stroke="transparent" points="-4,4 -4,-207 500,-207 500,4 -4,4"/>
<text text-anchor="start" x="227.01" y="-42.4" font-family="Times-12" font-weight="bold" font-size="14.00">Legend</text>
<polygon fill="#ffffb3" stroke="transparent" points="14,-10 14,-30 34,-30 34,-10 14,-10"/>
<text text-anchor="start" x="37.63" y="-15.4" font-family="Times-12" font-size="14.00"> &#160;Declarations</text>
<polygon fill="#8dd3c7" stroke="transparent" points="127,-10 127,-30 147,-30 147,-10 127,-10"/>
<text text-anchor="start" x="150.73" y="-15.4" font-family="Times-12" font-size="14.00"> &#160;Module</text>
<polygon fill="#80b1d3" stroke="transparent" points="213,-10 213,-30 233,-30 233,-10 213,-10"/>
<text text-anchor="start" x="236.78" y="-15.4" font-family="Times-12" font-size="14.00"> &#160;Bootstrap</text>
<polygon fill="#fdb462" stroke="transparent" points="310,-10 310,-30 330,-30 330,-10 310,-10"/>
<text text-anchor="start" x="333.67" y="-15.4" font-family="Times-12" font-size="14.00"> &#160;Providers</text>
<polygon fill="#fb8072" stroke="transparent" points="406,-10 406,-30 426,-30 426,-10 406,-10"/>
<text text-anchor="start" x="429.73" y="-15.4" font-family="Times-12" font-size="14.00"> &#160;Exports</text>
<g id="clust1" class="cluster">
<title>cluster_ConsentModule</title>
<polygon fill="none" stroke="black" stroke-dasharray="1,5" points="105,-70 105,-195 391,-195 391,-70 105,-70"/>
</g>
<g id="clust3" class="cluster">
<title>cluster_ConsentModule_imports</title>
<polygon fill="none" stroke="black" points="281,-78 281,-130 383,-130 383,-78 281,-78"/>
</g>
<g id="clust6" class="cluster">
<title>cluster_ConsentModule_providers</title>
<polygon fill="none" stroke="black" points="113,-78 113,-130 273,-130 273,-78 113,-78"/>
</g>
<!-- UserModule -->
<g id="node1" class="node">
<title>UserModule</title>
<polygon fill="#8dd3c7" stroke="black" points="374.98,-122 371.98,-126 350.98,-126 347.98,-122 289.02,-122 289.02,-86 374.98,-86 374.98,-122"/>
<text text-anchor="middle" x="332" y="-99.8" font-family="Times,serif" font-size="14.00">UserModule</text>
</g>
<!-- ConsentModule -->
<g id="node2" class="node">
<title>ConsentModule</title>
<polygon fill="#8dd3c7" stroke="black" points="313.94,-187 310.94,-191 289.94,-191 286.94,-187 208.06,-187 208.06,-151 313.94,-151 313.94,-187"/>
<text text-anchor="middle" x="261" y="-164.8" font-family="Times,serif" font-size="14.00">ConsentModule</text>
</g>
<!-- UserModule&#45;&gt;ConsentModule -->
<g id="edge1" class="edge">
<title>UserModule&#45;&gt;ConsentModule</title>
<path fill="none" stroke="black" d="M301.37,-122.11C301.37,-122.11 301.37,-140.99 301.37,-140.99"/>
<polygon fill="black" stroke="black" points="297.87,-140.99 301.37,-150.99 304.87,-140.99 297.87,-140.99"/>
</g>
<!-- ConsentService -->
<g id="node3" class="node">
<title>ConsentService</title>
<ellipse fill="#fdb462" stroke="black" cx="193" cy="-104" rx="71.79" ry="18"/>
<text text-anchor="middle" x="193" y="-99.8" font-family="Times,serif" font-size="14.00">ConsentService</text>
</g>
<!-- ConsentService&#45;&gt;ConsentModule -->
<g id="edge2" class="edge">
<title>ConsentService&#45;&gt;ConsentModule</title>
<path fill="none" stroke="black" d="M236.46,-118.43C236.46,-118.43 236.46,-140.89 236.46,-140.89"/>
<polygon fill="black" stroke="black" points="232.96,-140.89 236.46,-150.89 239.96,-140.89 232.96,-140.89"/>
</g>
</g>
</svg>
