<?xml version="1.0" encoding="UTF-8" standalone="no"?>
<!DOCTYPE svg PUBLIC "-//W3C//DTD SVG 1.1//EN"
 "http://www.w3.org/Graphics/SVG/1.1/DTD/svg11.dtd">
<!-- Generated by graphviz version 2.47.0 (20210316.0004)
 -->
<!-- Title: dependencies Pages: 1 -->
<svg width="1351pt" height="211pt"
 viewBox="0.00 0.00 1351.00 211.00" xmlns="http://www.w3.org/2000/svg" xmlns:xlink="http://www.w3.org/1999/xlink">
<g id="graph0" class="graph" transform="scale(1 1) rotate(0) translate(4 207)">
<title>dependencies</title>
<polygon fill="white" stroke="transparent" points="-4,4 -4,-207 1347,-207 1347,4 -4,4"/>
<text text-anchor="start" x="650.51" y="-42.4" font-family="Times-12" font-weight="bold" font-size="14.00">Legend</text>
<polygon fill="#ffffb3" stroke="transparent" points="437.5,-10 437.5,-30 457.5,-30 457.5,-10 437.5,-10"/>
<text text-anchor="start" x="461.13" y="-15.4" font-family="Times-12" font-size="14.00"> &#160;Declarations</text>
<polygon fill="#8dd3c7" stroke="transparent" points="550.5,-10 550.5,-30 570.5,-30 570.5,-10 550.5,-10"/>
<text text-anchor="start" x="574.23" y="-15.4" font-family="Times-12" font-size="14.00"> &#160;Module</text>
<polygon fill="#80b1d3" stroke="transparent" points="636.5,-10 636.5,-30 656.5,-30 656.5,-10 636.5,-10"/>
<text text-anchor="start" x="660.28" y="-15.4" font-family="Times-12" font-size="14.00"> &#160;Bootstrap</text>
<polygon fill="#fdb462" stroke="transparent" points="733.5,-10 733.5,-30 753.5,-30 753.5,-10 733.5,-10"/>
<text text-anchor="start" x="757.17" y="-15.4" font-family="Times-12" font-size="14.00"> &#160;Providers</text>
<polygon fill="#fb8072" stroke="transparent" points="829.5,-10 829.5,-30 849.5,-30 849.5,-10 829.5,-10"/>
<text text-anchor="start" x="853.23" y="-15.4" font-family="Times-12" font-size="14.00"> &#160;Exports</text>
<g id="clust1" class="cluster">
<title>cluster_AppModule</title>
<polygon fill="none" stroke="black" stroke-dasharray="1,5" points="8,-70 8,-195 1335,-195 1335,-70 8,-70"/>
</g>
<g id="clust3" class="cluster">
<title>cluster_AppModule_imports</title>
<polygon fill="none" stroke="black" points="154,-78 154,-130 1327,-130 1327,-78 154,-78"/>
</g>
<g id="clust6" class="cluster">
<title>cluster_AppModule_providers</title>
<polygon fill="none" stroke="black" points="16,-78 16,-130 146,-130 146,-78 16,-78"/>
</g>
<!-- AuthModule -->
<g id="node1" class="node">
<title>AuthModule</title>
<polygon fill="#8dd3c7" stroke="black" points="1318.55,-122 1315.55,-126 1294.55,-126 1291.55,-122 1231.45,-122 1231.45,-86 1318.55,-86 1318.55,-122"/>
<text text-anchor="middle" x="1275" y="-99.8" font-family="Times,serif" font-size="14.00">AuthModule</text>
</g>
<!-- AppModule -->
<g id="node11" class="node">
<title>AppModule</title>
<polygon fill="#8dd3c7" stroke="black" points="700.66,-187 697.66,-191 676.66,-191 673.66,-187 617.34,-187 617.34,-151 700.66,-151 700.66,-187"/>
<text text-anchor="middle" x="659" y="-164.8" font-family="Times,serif" font-size="14.00">AppModule</text>
</g>
<!-- AuthModule&#45;&gt;AppModule -->
<g id="edge1" class="edge">
<title>AuthModule&#45;&gt;AppModule</title>
<path fill="none" stroke="black" d="M1275,-122.09C1275,-145.13 1275,-182 1275,-182 1275,-182 710.86,-182 710.86,-182"/>
<polygon fill="black" stroke="black" points="710.86,-178.5 700.86,-182 710.86,-185.5 710.86,-178.5"/>
</g>
<!-- ConsentModule -->
<g id="node2" class="node">
<title>ConsentModule</title>
<polygon fill="#8dd3c7" stroke="black" points="1213.94,-122 1210.94,-126 1189.94,-126 1186.94,-122 1108.06,-122 1108.06,-86 1213.94,-86 1213.94,-122"/>
<text text-anchor="middle" x="1161" y="-99.8" font-family="Times,serif" font-size="14.00">ConsentModule</text>
</g>
<!-- ConsentModule&#45;&gt;AppModule -->
<g id="edge2" class="edge">
<title>ConsentModule&#45;&gt;AppModule</title>
<path fill="none" stroke="black" d="M1161,-122.28C1161,-143.32 1161,-175 1161,-175 1161,-175 710.94,-175 710.94,-175"/>
<polygon fill="black" stroke="black" points="710.94,-171.5 700.94,-175 710.94,-178.5 710.94,-171.5"/>
</g>
<!-- DatabaseModule -->
<g id="node3" class="node">
<title>DatabaseModule</title>
<polygon fill="#8dd3c7" stroke="black" points="1090.35,-122 1087.35,-126 1066.35,-126 1063.35,-122 979.65,-122 979.65,-86 1090.35,-86 1090.35,-122"/>
<text text-anchor="middle" x="1035" y="-99.8" font-family="Times,serif" font-size="14.00">DatabaseModule</text>
</g>
<!-- DatabaseModule&#45;&gt;AppModule -->
<g id="edge3" class="edge">
<title>DatabaseModule&#45;&gt;AppModule</title>
<path fill="none" stroke="black" d="M1035,-122.11C1035,-141.34 1035,-169 1035,-169 1035,-169 710.68,-169 710.68,-169"/>
<polygon fill="black" stroke="black" points="710.68,-165.5 700.68,-169 710.68,-172.5 710.68,-165.5"/>
</g>
<!-- EmailModule -->
<g id="node4" class="node">
<title>EmailModule</title>
<polygon fill="#8dd3c7" stroke="black" points="961.49,-122 958.49,-126 937.49,-126 934.49,-122 868.51,-122 868.51,-86 961.49,-86 961.49,-122"/>
<text text-anchor="middle" x="915" y="-99.8" font-family="Times,serif" font-size="14.00">EmailModule</text>
</g>
<!-- EmailModule&#45;&gt;AppModule -->
<g id="edge4" class="edge">
<title>EmailModule&#45;&gt;AppModule</title>
<path fill="none" stroke="black" d="M915,-122.02C915,-139.37 915,-163 915,-163 915,-163 710.7,-163 710.7,-163"/>
<polygon fill="black" stroke="black" points="710.7,-159.5 700.7,-163 710.7,-166.5 710.7,-159.5"/>
</g>
<!-- MinioClientModule -->
<g id="node5" class="node">
<title>MinioClientModule</title>
<polygon fill="#8dd3c7" stroke="black" points="851,-122 848,-126 827,-126 824,-122 723,-122 723,-86 851,-86 851,-122"/>
<text text-anchor="middle" x="787" y="-99.8" font-family="Times,serif" font-size="14.00">MinioClientModule</text>
</g>
<!-- MinioClientModule&#45;&gt;AppModule -->
<g id="edge5" class="edge">
<title>MinioClientModule&#45;&gt;AppModule</title>
<path fill="none" stroke="black" d="M787,-122.24C787,-137.57 787,-157 787,-157 787,-157 710.91,-157 710.91,-157"/>
<polygon fill="black" stroke="black" points="710.91,-153.5 700.91,-157 710.91,-160.5 710.91,-153.5"/>
</g>
<!-- OrderModule -->
<g id="node6" class="node">
<title>OrderModule</title>
<polygon fill="#8dd3c7" stroke="black" points="705.19,-122 702.19,-126 681.19,-126 678.19,-122 612.81,-122 612.81,-86 705.19,-86 705.19,-122"/>
<text text-anchor="middle" x="659" y="-99.8" font-family="Times,serif" font-size="14.00">OrderModule</text>
</g>
<!-- OrderModule&#45;&gt;AppModule -->
<g id="edge6" class="edge">
<title>OrderModule&#45;&gt;AppModule</title>
<path fill="none" stroke="black" d="M659,-122.11C659,-122.11 659,-140.99 659,-140.99"/>
<polygon fill="black" stroke="black" points="655.5,-140.99 659,-150.99 662.5,-140.99 655.5,-140.99"/>
</g>
<!-- ProductModule -->
<g id="node7" class="node">
<title>ProductModule</title>
<polygon fill="#8dd3c7" stroke="black" points="594.6,-122 591.6,-126 570.6,-126 567.6,-122 491.4,-122 491.4,-86 594.6,-86 594.6,-122"/>
<text text-anchor="middle" x="543" y="-99.8" font-family="Times,serif" font-size="14.00">ProductModule</text>
</g>
<!-- ProductModule&#45;&gt;AppModule -->
<g id="edge7" class="edge">
<title>ProductModule&#45;&gt;AppModule</title>
<path fill="none" stroke="black" d="M543,-122.24C543,-137.57 543,-157 543,-157 543,-157 607.12,-157 607.12,-157"/>
<polygon fill="black" stroke="black" points="607.12,-160.5 617.12,-157 607.12,-153.5 607.12,-160.5"/>
</g>
<!-- ProfileModule -->
<g id="node8" class="node">
<title>ProfileModule</title>
<polygon fill="#8dd3c7" stroke="black" points="473.65,-122 470.65,-126 449.65,-126 446.65,-122 376.35,-122 376.35,-86 473.65,-86 473.65,-122"/>
<text text-anchor="middle" x="425" y="-99.8" font-family="Times,serif" font-size="14.00">ProfileModule</text>
</g>
<!-- ProfileModule&#45;&gt;AppModule -->
<g id="edge8" class="edge">
<title>ProfileModule&#45;&gt;AppModule</title>
<path fill="none" stroke="black" d="M425,-122.02C425,-139.37 425,-163 425,-163 425,-163 607.17,-163 607.17,-163"/>
<polygon fill="black" stroke="black" points="607.17,-166.5 617.17,-163 607.17,-159.5 607.17,-166.5"/>
</g>
<!-- RedisModule -->
<g id="node9" class="node">
<title>RedisModule</title>
<polygon fill="#8dd3c7" stroke="black" points="357.94,-122 354.94,-126 333.94,-126 330.94,-122 266.06,-122 266.06,-86 357.94,-86 357.94,-122"/>
<text text-anchor="middle" x="312" y="-99.8" font-family="Times,serif" font-size="14.00">RedisModule</text>
</g>
<!-- RedisModule&#45;&gt;AppModule -->
<g id="edge9" class="edge">
<title>RedisModule&#45;&gt;AppModule</title>
<path fill="none" stroke="black" d="M312,-122.11C312,-141.34 312,-169 312,-169 312,-169 607.14,-169 607.14,-169"/>
<polygon fill="black" stroke="black" points="607.14,-172.5 617.14,-169 607.14,-165.5 607.14,-172.5"/>
</g>
<!-- UserModule -->
<g id="node10" class="node">
<title>UserModule</title>
<polygon fill="#8dd3c7" stroke="black" points="247.98,-122 244.98,-126 223.98,-126 220.98,-122 162.02,-122 162.02,-86 247.98,-86 247.98,-122"/>
<text text-anchor="middle" x="205" y="-99.8" font-family="Times,serif" font-size="14.00">UserModule</text>
</g>
<!-- UserModule&#45;&gt;AppModule -->
<g id="edge10" class="edge">
<title>UserModule&#45;&gt;AppModule</title>
<path fill="none" stroke="black" d="M205,-122.28C205,-143.32 205,-175 205,-175 205,-175 607.1,-175 607.1,-175"/>
<polygon fill="black" stroke="black" points="607.1,-178.5 617.1,-175 607.1,-171.5 607.1,-178.5"/>
</g>
<!-- AppService -->
<g id="node12" class="node">
<title>AppService</title>
<ellipse fill="#fdb462" stroke="black" cx="81" cy="-104" rx="56.74" ry="18"/>
<text text-anchor="middle" x="81" y="-99.8" font-family="Times,serif" font-size="14.00">AppService</text>
</g>
<!-- AppService&#45;&gt;AppModule -->
<g id="edge11" class="edge">
<title>AppService&#45;&gt;AppModule</title>
<path fill="none" stroke="black" d="M81,-122.09C81,-145.13 81,-182 81,-182 81,-182 606.97,-182 606.97,-182"/>
<polygon fill="black" stroke="black" points="606.97,-185.5 616.97,-182 606.97,-178.5 606.97,-185.5"/>
</g>
</g>
</svg>
