<?xml version="1.0" encoding="UTF-8" standalone="no"?>
<!DOCTYPE svg PUBLIC "-//W3C//DTD SVG 1.1//EN"
 "http://www.w3.org/Graphics/SVG/1.1/DTD/svg11.dtd">
<!-- Generated by graphviz version 2.47.0 (20210316.0004)
 -->
<!-- Title: dependencies Pages: 1 -->
<svg width="504pt" height="211pt"
 viewBox="0.00 0.00 504.00 211.00" xmlns="http://www.w3.org/2000/svg" xmlns:xlink="http://www.w3.org/1999/xlink">
<g id="graph0" class="graph" transform="scale(1 1) rotate(0) translate(4 207)">
<title>dependencies</title>
<polygon fill="white" stroke="transparent" points="-4,4 -4,-207 500,-207 500,4 -4,4"/>
<text text-anchor="start" x="227.01" y="-42.4" font-family="Times-12" font-weight="bold" font-size="14.00">Legend</text>
<polygon fill="#ffffb3" stroke="transparent" points="14,-10 14,-30 34,-30 34,-10 14,-10"/>
<text text-anchor="start" x="37.63" y="-15.4" font-family="Times-12" font-size="14.00"> &#160;Declarations</text>
<polygon fill="#8dd3c7" stroke="transparent" points="127,-10 127,-30 147,-30 147,-10 127,-10"/>
<text text-anchor="start" x="150.73" y="-15.4" font-family="Times-12" font-size="14.00"> &#160;Module</text>
<polygon fill="#80b1d3" stroke="transparent" points="213,-10 213,-30 233,-30 233,-10 213,-10"/>
<text text-anchor="start" x="236.78" y="-15.4" font-family="Times-12" font-size="14.00"> &#160;Bootstrap</text>
<polygon fill="#fdb462" stroke="transparent" points="310,-10 310,-30 330,-30 330,-10 310,-10"/>
<text text-anchor="start" x="333.67" y="-15.4" font-family="Times-12" font-size="14.00"> &#160;Providers</text>
<polygon fill="#fb8072" stroke="transparent" points="406,-10 406,-30 426,-30 426,-10 406,-10"/>
<text text-anchor="start" x="429.73" y="-15.4" font-family="Times-12" font-size="14.00"> &#160;Exports</text>
<g id="clust1" class="cluster">
<title>cluster_ProductModule</title>
<polygon fill="none" stroke="black" stroke-dasharray="1,5" points="86,-70 86,-195 410,-195 410,-70 86,-70"/>
</g>
<g id="clust6" class="cluster">
<title>cluster_ProductModule_providers</title>
<polygon fill="none" stroke="black" points="246,-78 246,-130 402,-130 402,-78 246,-78"/>
</g>
<g id="clust3" class="cluster">
<title>cluster_ProductModule_imports</title>
<polygon fill="none" stroke="black" points="94,-78 94,-130 238,-130 238,-78 94,-78"/>
</g>
<!-- MinioClientModule -->
<g id="node1" class="node">
<title>MinioClientModule</title>
<polygon fill="#8dd3c7" stroke="black" points="230,-122 227,-126 206,-126 203,-122 102,-122 102,-86 230,-86 230,-122"/>
<text text-anchor="middle" x="166" y="-99.8" font-family="Times,serif" font-size="14.00">MinioClientModule</text>
</g>
<!-- ProductModule -->
<g id="node2" class="node">
<title>ProductModule</title>
<polygon fill="#8dd3c7" stroke="black" points="296.6,-187 293.6,-191 272.6,-191 269.6,-187 193.4,-187 193.4,-151 296.6,-151 296.6,-187"/>
<text text-anchor="middle" x="245" y="-164.8" font-family="Times,serif" font-size="14.00">ProductModule</text>
</g>
<!-- MinioClientModule&#45;&gt;ProductModule -->
<g id="edge1" class="edge">
<title>MinioClientModule&#45;&gt;ProductModule</title>
<path fill="none" stroke="black" d="M211.73,-122.11C211.73,-122.11 211.73,-140.99 211.73,-140.99"/>
<polygon fill="black" stroke="black" points="208.23,-140.99 211.73,-150.99 215.23,-140.99 208.23,-140.99"/>
</g>
<!-- ProductService -->
<g id="node3" class="node">
<title>ProductService</title>
<ellipse fill="#fdb462" stroke="black" cx="324" cy="-104" rx="70.06" ry="18"/>
<text text-anchor="middle" x="324" y="-99.8" font-family="Times,serif" font-size="14.00">ProductService</text>
</g>
<!-- ProductService&#45;&gt;ProductModule -->
<g id="edge2" class="edge">
<title>ProductService&#45;&gt;ProductModule</title>
<path fill="none" stroke="black" d="M275.26,-117.15C275.26,-117.15 275.26,-140.69 275.26,-140.69"/>
<polygon fill="black" stroke="black" points="271.76,-140.69 275.26,-150.69 278.76,-140.69 271.76,-140.69"/>
</g>
</g>
</svg>
